# xmcd CD database file
#
# Track frame offsets:
#	150
#	15078
#	27958
#	44898
#	59935
#	84215
#	99208
#	118815
#	134678
#	148223
#	161305
#	177083
#	187555
#	199905
#	214623
#	228763
#	239205
#	256523
#	275248
#	288015
#	303273
#	319785
#
# Disc length: 4479 seconds
#
# Revision: 6
# Processed by: cddbd v1.5.2PL0 Copyright (c) Steve Scherf et al.
# Submitted via: CDex 1.51
#
DISCID=34117d16
DTITLE=Esecutori Vari - Blues Harp Boogie
DYEAR=1900
DGENRE=Blues
TTITLE0=Paul Orta and the Kingpins - Wailing at Weavers
TTITLE1=King Biscuit Boy - Get it right
TTITLE2=Billy Boy Arnold and Tony McPhee - Catfish
TTITLE3=Louisiana Red with Bill Dicey - Alabama train
TTITLE4=Junior Wells with Buddy Guy - Country Girl
TTITLE5=Greg 'Fingers' Taylor with Anson Funderburch and the Rockets - Soul survivor
TTITLE6=Big Walter 'Shaky' Horton - Junking with Walter
TTITLE7=Charlie Musslewhite - I'm going home
TTITLE8=Sonny Boy Williamson - Your funeral and my trial
TTITLE9=Troyce Key and J. J. Malone feat. Paul Green - Annie Maybe
TTITLE10=Sonny Blake and Mose Vinson - Bugal call blues
TTITLE11=The Paul deLay Band - Harpoon man
TTITLE12=Carey Bell and Muddy Waters - Trouble no more
TTITLE13=King Biscuit Boy - I've done everything I can
TTITLE14=Little Walter - Walters Jump
TTITLE15=Paul Lamb and the Blues Burglars - You sure make loving hard
TTITLE16=Jimmy Reed - Cry before I go
TTITLE17=Big Walter 'Shaky' Horton - Rockin my boogie
TTITLE18=The Paul deLay Band - Mine all mine
TTITLE19=Junior Wells and Buddy Guy - Hoodoo man blues
TTITLE20=Harmonica Red and Clarence Edwards - I'm your slave
TTITLE21=Greg 'Fingers' Taylor with Anson Funderburch and the Rockets - Dixie Diner
EXTD=
EXTT0=
EXTT1=
EXTT2=
EXTT3=
EXTT4=
EXTT5=
EXTT6=
EXTT7=
EXTT8=
EXTT9=
EXTT10=
EXTT11=
EXTT12=
EXTT13=
EXTT14=
EXTT15=
EXTT16=
EXTT17=
EXTT18=
EXTT19=
EXTT20=
EXTT21=
PLAYORDER=
